<svg width="520" height="132" viewBox="0 0 520 132" fill="none" xmlns="http://www.w3.org/2000/svg">
  <g transform="translate(6 10) scale(.42)">
    <path fill="#09090B" fill-rule="evenodd" d="M66 46h70c51.9 0 86 34.4 86 82s-34.1 82-86 82H66V46Zm26 29v106h43c34.9 0 58-21.8 58-53s-23.1-53-58-53H92Z" clip-rule="evenodd"/>
    <path d="M181 91 220 55" stroke="#09090B" stroke-width="18" stroke-linecap="round"/>
    <path d="m112 105-17 23 17 23m32-46 17 23-17 23" stroke="#09090B" stroke-width="10" stroke-linecap="round" stroke-linejoin="round"/>
    <circle cx="96" cy="226" r="11" fill="#09090B"/>
    <circle cx="160" cy="226" r="11" fill="#09090B"/>
  </g>
  <text x="138" y="58" fill="#09090B" font-family="Geist, Inter, ui-sans-serif, system-ui, -apple-system, BlinkMacSystemFont, Segoe UI, sans-serif" font-size="42" font-weight="760">DanCruShop</text>
  <text x="141" y="88" fill="#52525B" font-family="Geist, Inter, ui-sans-serif, system-ui, -apple-system, BlinkMacSystemFont, Segoe UI, sans-serif" font-size="18" font-weight="650">Digital kits in your cart</text>
</svg>
