<svg width="360" height="88" viewBox="0 0 360 88" fill="none" xmlns="http://www.w3.org/2000/svg">
  <g transform="translate(10 4) scale(1.1)">
    <path fill-rule="evenodd" clip-rule="evenodd" d="M14 16h20.5C46.6 16 56 25 56 37c0 12.4-9.6 19-21.5 19H14V16Zm7.2 6.7v26.6h13.1c8.4 0 14.4-5 14.4-12.2 0-7.7-6.1-14.4-14.4-14.4H21.2Z" fill="#09090B"/>
    <path d="M58 11v7.2H47.2c-2.5 0-3.5 1.1-4.1 3.3L34 56h-8l10.3-38.6C37.5 13 41 11 46.2 11H58Z" fill="#09090B"/>
    <path d="M29.2 28L21.4 34.4L29.2 40.8" stroke="#09090B" stroke-width="4.5" stroke-linecap="butt" stroke-linejoin="miter"/>
    <path d="M42.2 28L50 34.4L42.2 40.8" stroke="#09090B" stroke-width="4.5" stroke-linecap="butt" stroke-linejoin="miter"/>
    <circle cx="22" cy="64" r="4.6" fill="#09090B"/>
    <circle cx="40" cy="64" r="4.6" fill="#09090B"/>
  </g>
  <text x="96" y="43" fill="#09090B" font-family="Geist, Inter, ui-sans-serif, system-ui, -apple-system, BlinkMacSystemFont, Segoe UI, sans-serif" font-size="29" font-weight="750">DanCruShop</text>
  <text x="98" y="61" fill="#525252" font-family="Geist, Inter, ui-sans-serif, system-ui, -apple-system, BlinkMacSystemFont, Segoe UI, sans-serif" font-size="12" font-weight="600">Digital kits and code packs</text>
</svg>
