<svg width="256" height="256" viewBox="0 0 64 70" fill="none" xmlns="http://www.w3.org/2000/svg">
  <rect width="64" height="70" fill="#FFFFFF"/>
  <path fill-rule="evenodd" clip-rule="evenodd" d="M12 13 20 8H34C48 8 56 18 56 30 56 42 48 52 34 52H12Z M22 18H33C43 18 47 24 47 30 47 36 43 42 33 42H22Z" fill="#09090B"/>
  <path d="M30 24 25.5 30 30 36" stroke="#09090B" stroke-width="4" stroke-linecap="round" stroke-linejoin="round"/>
  <path d="M37.5 23 31.5 37" stroke="#09090B" stroke-width="4" stroke-linecap="round" stroke-linejoin="round"/>
  <path d="M39 24 43.5 30 39 36" stroke="#09090B" stroke-width="4" stroke-linecap="round" stroke-linejoin="round"/>
  <circle cx="22" cy="64" r="4.6" fill="#09090B"/>
  <circle cx="44" cy="64" r="4.6" fill="#09090B"/>
</svg>
